<?xml version="1.0" encoding="UTF-8" standalone="no"?>
<!DOCTYPE svg PUBLIC "-//W3C//DTD SVG 1.1//EN" "http://www.w3.org/Graphics/SVG/1.1/DTD/svg11.dtd">
<svg width="100%" height="100%" viewBox="0 0 591 591" version="1.1" xmlns="http://www.w3.org/2000/svg" xmlns:xlink="http://www.w3.org/1999/xlink" xml:space="preserve" xmlns:serif="http://www.serif.com/" style="fill-rule:evenodd;clip-rule:evenodd;stroke-linejoin:round;stroke-miterlimit:2;">
    <g transform="matrix(1,0,0,1,1.18924,8.17894)">
        <path d="M342.187,5.875C310.342,0.538 277.831,0.538 245.986,5.875C245.986,5.875 238.547,36.598 233.802,56.196C231.486,65.76 224.547,73.535 215.308,76.92C201.035,82.108 187.319,88.714 174.355,96.623C165.953,101.732 155.554,102.309 146.638,98.159C128.35,89.666 99.692,76.326 99.692,76.326C75.664,97.896 55.394,123.315 39.711,151.54C39.711,151.54 59.094,176.511 71.457,192.44C77.491,200.213 79.244,210.486 76.13,219.821C71.287,234.214 67.899,249.056 66,264.123C64.756,273.878 58.723,282.367 49.92,286.75C31.877,295.754 3.58,309.842 3.58,309.842C5.463,342.077 12.697,373.773 24.987,403.632C24.987,403.632 56.595,404.048 76.757,404.313C86.596,404.442 95.721,409.477 101.077,417.731C109.311,430.492 118.803,442.394 129.398,453.273C136.249,460.328 139.125,470.338 137.063,479.953C132.853,499.673 126.225,530.581 126.225,530.581C152.601,549.207 181.892,563.313 212.899,572.321C212.899,572.321 232.932,547.868 245.71,532.27C251.946,524.658 261.571,520.663 271.364,521.622C286.475,523.141 301.698,523.141 316.81,521.64C326.597,520.681 336.217,524.674 342.449,532.282C355.241,547.868 375.273,572.321 375.273,572.321C406.28,563.313 435.572,549.207 461.948,530.581C461.948,530.581 455.319,499.673 451.091,479.957C449.028,470.336 451.906,460.32 458.762,453.261C469.37,442.394 478.862,430.492 487.11,417.741C492.464,409.492 501.583,404.46 511.416,404.331C531.578,404.048 563.186,403.632 563.186,403.632C575.476,373.773 582.71,342.077 584.593,309.842C584.593,309.842 556.295,295.754 538.245,286.767C529.436,282.381 523.4,273.886 522.155,264.125C520.274,249.056 516.886,234.214 512.06,219.815C508.948,210.486 510.7,200.22 516.73,192.451C529.079,176.511 548.461,151.54 548.461,151.54C532.779,123.315 512.509,97.896 488.481,76.326C488.481,76.326 459.822,89.666 441.542,98.175C432.621,102.328 422.216,101.751 413.808,96.638C400.853,88.714 387.137,82.108 372.871,76.904C363.637,73.521 356.703,65.75 354.389,56.192C349.626,36.598 342.187,5.875 342.187,5.875ZM294.086,121.183C388.845,121.183 465.777,198.115 465.777,292.874C465.777,387.633 388.845,464.565 294.086,464.565C199.327,464.565 122.395,387.633 122.395,292.874C122.395,198.115 199.327,121.183 294.086,121.183Z"/>
    </g>
</svg>
