<?xml version="1.0" encoding="UTF-8" standalone="no"?>
<!DOCTYPE svg PUBLIC "-//W3C//DTD SVG 1.1//EN" "http://www.w3.org/Graphics/SVG/1.1/DTD/svg11.dtd">
<svg width="100%" height="100%" viewBox="0 0 591 591" version="1.1" xmlns="http://www.w3.org/2000/svg" xmlns:xlink="http://www.w3.org/1999/xlink" xml:space="preserve" xmlns:serif="http://www.serif.com/" style="fill-rule:evenodd;clip-rule:evenodd;stroke-linejoin:round;stroke-miterlimit:2;">
    <g transform="matrix(1,0,0,1,2.24333,5.05044)">
        <path d="M309.678,39.479C309.678,46.095 307.05,52.441 302.371,57.119C297.693,61.798 291.348,64.426 284.731,64.426C238.205,64.426 138.706,64.426 92.18,64.426C85.563,64.426 79.218,67.054 74.54,71.733C69.861,76.411 67.233,82.756 67.233,89.373C67.233,168.32 67.233,412.131 67.233,491.078C67.233,504.855 78.402,516.024 92.18,516.024C171.127,516.024 414.938,516.024 493.885,516.024C507.662,516.024 518.831,504.855 518.831,491.078C518.831,444.564 518.831,345.108 518.831,298.594C518.831,291.978 521.46,285.633 526.138,280.954C530.817,276.276 537.162,273.648 543.778,273.648C547.929,273.648 552.234,273.648 556.385,273.648C563.001,273.648 569.346,276.276 574.025,280.954C578.703,285.633 581.331,291.978 581.331,298.594C581.331,355.878 581.331,496.294 581.331,553.578C581.331,560.194 578.703,566.539 574.025,571.218C569.346,575.896 563.001,578.524 556.385,578.524L29.68,578.524C15.902,578.524 4.733,567.355 4.733,553.578L4.733,26.873C4.733,20.256 7.361,13.911 12.04,9.233C16.718,4.554 23.063,1.926 29.68,1.926C86.975,1.926 227.436,1.926 284.731,1.926C291.348,1.926 297.693,4.554 302.371,9.233C307.05,13.911 309.678,20.256 309.678,26.873C309.678,31.023 309.678,35.329 309.678,39.479ZM423.316,85.216C428.001,80.531 428.001,72.935 423.316,68.25C412.255,57.188 392.541,37.475 377.472,22.406C374.041,18.975 373.015,13.815 374.872,9.332C376.728,4.849 381.103,1.926 385.955,1.926C435.619,1.926 534.997,1.926 569.335,1.926C572.516,1.926 575.568,3.19 577.818,5.44C580.068,7.69 581.331,10.741 581.331,13.923L581.331,197.302C581.331,202.154 578.409,206.529 573.926,208.386C569.443,210.243 564.283,209.216 560.852,205.785C545.782,190.716 526.069,171.003 515.008,159.941C510.322,155.256 502.726,155.256 498.041,159.941C466.878,191.105 358.918,299.065 327.755,330.228C323.07,334.913 315.474,334.913 310.789,330.228C296.408,315.848 267.41,286.849 253.029,272.469C248.344,267.784 248.344,260.188 253.029,255.503C284.193,224.339 392.153,116.379 423.316,85.216Z"/>
    </g>
</svg>
