<?xml version="1.0" encoding="UTF-8" standalone="no"?>
<!DOCTYPE svg PUBLIC "-//W3C//DTD SVG 1.1//EN" "http://www.w3.org/Graphics/SVG/1.1/DTD/svg11.dtd">
<svg width="100%" height="100%" viewBox="0 0 591 591" version="1.1" xmlns="http://www.w3.org/2000/svg" xmlns:xlink="http://www.w3.org/1999/xlink" xml:space="preserve" xmlns:serif="http://www.serif.com/" style="fill-rule:evenodd;clip-rule:evenodd;stroke-linejoin:round;stroke-miterlimit:2;">
    <g transform="matrix(1,0,0,1,0.240119,-12.8044)">
        <path d="M64.508,299.066C63.009,288.402 62.234,277.506 62.234,266.431C62.234,137.944 166.549,33.629 295.035,33.629C423.522,33.629 527.837,137.944 527.837,266.431C527.837,277.506 527.062,288.402 525.563,299.066L548.662,299.066C567.544,299.066 582.851,314.374 582.851,333.256L582.851,548.341C582.851,567.224 567.544,582.531 548.662,582.531L41.409,582.531C22.527,582.531 7.22,567.224 7.22,548.341L7.22,333.256C7.22,314.374 22.527,299.066 41.409,299.066L64.508,299.066ZM334.82,396.352C334.82,385.194 325.775,376.149 314.617,376.149C302.618,376.149 287.453,376.149 275.454,376.149C264.296,376.149 255.251,385.194 255.251,396.352C255.251,422.5 255.251,467.8 255.251,493.948C255.251,505.106 264.296,514.151 275.454,514.151C287.453,514.151 302.618,514.151 314.617,514.151C325.775,514.151 334.82,505.106 334.82,493.948C334.82,467.8 334.82,422.5 334.82,396.352ZM428.481,299.066L161.59,299.066C159.036,288.601 157.683,277.673 157.683,266.431C157.683,190.624 219.228,129.078 295.035,129.078C370.843,129.078 432.388,190.624 432.388,266.431C432.388,277.673 431.035,288.601 428.481,299.066Z"/>
    </g>
</svg>
